<svg xmlns="http://www.w3.org/2000/svg" viewBox="0 0 903.45 903.45">
  <rect width="903.45" height="903.45" fill="#000000" />
  <g transform="translate(0, 287.1)">
    <path fill="#f4faf5" d="M129.7,94.88h81V37.29h-81c-20.14,0-50,4.56-67.88,14.51C-6.42,89.73.17,157.49.17,186.83V329.24H57.58V211.82H178.52V154.74H57.5C58.91,115.77,89,94.88,129.7,94.88Z"/>
    <path fill="#f4faf5" d="M375.27,99.89H346.34c-14.91,0-27,12.39-27,27.67V329.24h56v-172c30.89,0,55.93,25.67,55.93,57.34V329.24h56V214.56C487.2,151.23,437.09,99.89,375.27,99.89Z"/>
    <path fill="#f4faf5" d="M870.23,273c-29-2.67-50.72-27.91-50.72-57V189.34h56V159a25.63,25.63,0,0,0-25.63-25.63H819.51V49.43h-56v166c0,58.13,43.62,108.06,101.51,113.33a113.11,113.11,0,0,0,38.39-3V293.26A20.31,20.31,0,0,0,881.17,273,56.25,56.25,0,0,1,870.23,273Z"/>
    <path fill="#f4faf5" d="M646.58,108.91v58.85a63.21,63.21,0,0,0-24.65-6.33l-.77,0c-.86,0-1.71-.06-2.54-.06h-.26a60.72,60.72,0,0,0-40.71,15C564.42,187.71,557.54,202,557,219.05c-.32,10.11,2.24,19.69,6,29,5.31,13.26,12.7,25.48,21,37.19,9.63,13.58,19.55,27,29.42,40.44a30.8,30.8,0,0,0,3.82,3.54A111.92,111.92,0,0,1,506.76,213.56c1.87-57.3,47.82-104.56,105-108A112.9,112.9,0,0,1,646.58,108.91Z"/>
    <path fill="#f4faf5" d="M720.06,61.7a10.46,10.46,0,0,1,10.46,10.47V217.32A111.91,111.91,0,0,1,620,329.24c1.28-1.2,2.67-2.26,3.81-3.54s2.16-3,3.23-4.43c9.31-12.83,18.78-25.56,27.88-38.49C663,271.31,670,259.25,675,246.21s7-26.14,3.54-39.8a55.5,55.5,0,0,0-3-8.7,10.83,10.83,0,0,1-1-4.37V72.17A10.46,10.46,0,0,1,685,61.7Z"/>
    <path fill="#f4faf5" d="M618.65,190.88c-17,0-30.84,13.13-30.86,29.37,0,16.43,13.71,29.64,30.78,29.64s30.83-13.13,30.86-29.4S635.72,190.88,618.65,190.88ZM618.41,240c-11.2-.1-20.41-9.06-20.35-19.79s9.41-19.55,20.59-19.55,20.59,9,20.51,19.79S629.64,240.18,618.41,240Z"/>
    <rect fill="#f4faf5" x="675.27" width="55.26" height="53.35" rx="18.14"/>
    <path fill="#f4faf5" d="M229.31,167.82V320.51a8.73,8.73,0,0,0,8.73,8.73h38.5a8.73,8.73,0,0,0,8.73-8.73V167.82a8.73,8.73,0,0,0-8.73-8.74H238A8.73,8.73,0,0,0,229.31,167.82Z"/>
    <rect fill="#f4faf5" x="229.66" y="99.89" width="55.26" height="53.35" rx="18.14"/>
  </g>
</svg>
